<svg width="23" height="10" viewBox="0 0 23 10" fill="none" xmlns="http://www.w3.org/2000/svg">
<path d="M4.34684 1.25817C4.61762 0.919478 4.80137 0.464714 4.75291 0C4.35652 0.0197102 3.8728 0.261512 3.59276 0.600469C3.3413 0.890734 3.11875 1.36454 3.17677 1.80977C3.62173 1.84837 4.06629 1.58736 4.34684 1.25817Z" fill="#000008"/>
<path d="M4.74787 1.89671C4.10167 1.85822 3.55224 2.26346 3.24365 2.26346C2.93489 2.26346 2.46233 1.91611 1.95122 1.92547C1.28598 1.93524 0.668714 2.31137 0.331133 2.9096C-0.363214 4.10635 0.147895 5.88155 0.823111 6.85624C1.15101 7.33844 1.54619 7.86939 2.06689 7.85032C2.55887 7.83101 2.75171 7.53175 3.34973 7.53175C3.94731 7.53175 4.12101 7.85032 4.6418 7.84067C5.18187 7.83101 5.51951 7.35822 5.84741 6.87554C6.22357 6.32585 6.37756 5.79508 6.38724 5.76594C6.37756 5.75629 5.34583 5.36049 5.33627 4.17369C5.32653 3.17996 6.14628 2.70729 6.18487 2.67798C5.72194 1.99331 4.99863 1.91611 4.74787 1.89671Z" fill="#000008"/>
<path d="M10.3745 0.55186C11.779 0.55186 12.757 1.52 12.757 2.92954C12.757 4.3441 11.7588 5.31727 10.3392 5.31727H8.78418V7.79025H7.66065V0.551859L10.3745 0.55186ZM8.78418 4.37419H10.0733C11.0515 4.37419 11.6083 3.84755 11.6083 2.93457C11.6083 2.02168 11.0515 1.49997 10.0784 1.49997H8.78418V4.37419Z" fill="#000008"/>
<path d="M13.0505 6.29043C13.0505 5.36738 13.7578 4.80058 15.0119 4.73034L16.4565 4.6451V4.23882C16.4565 3.6519 16.0602 3.30077 15.3982 3.30077C14.771 3.30077 14.3797 3.60168 14.2845 4.07327H13.2612C13.3214 3.12013 14.134 2.41788 15.4382 2.41788C16.7173 2.41788 17.5349 3.09507 17.5349 4.15348V7.79024H16.4965V6.92244H16.4716C16.1656 7.50936 15.4984 7.88051 14.8062 7.88051C13.7729 7.88051 13.0505 7.23844 13.0505 6.29043ZM16.4565 5.81391V5.39757L15.1573 5.47778C14.5102 5.52296 14.144 5.80888 14.144 6.26034C14.144 6.72177 14.5252 7.02277 15.1071 7.02277C15.8645 7.02277 16.4565 6.50106 16.4565 5.81391Z" fill="#000008"/>
<path d="M18.5153 9.73154V8.85368C18.5954 8.87371 18.7759 8.87371 18.8663 8.87371C19.3679 8.87371 19.6388 8.66307 19.8042 8.12134C19.8042 8.11127 19.8996 7.8003 19.8996 7.79527L17.9935 2.51318H19.1672L20.5016 6.8071H20.5216L21.856 2.51318H22.9997L21.0232 8.06609C20.5719 9.3453 20.0502 9.7566 18.9567 9.7566C18.8663 9.7566 18.5954 9.74654 18.5153 9.73154Z" fill="#000008"/>
</svg>
