<svg width="25" height="10" viewBox="0 0 25 10" fill="none" xmlns="http://www.w3.org/2000/svg">
<path d="M11.6683 7.66252H10.7505V0.52103H13.1836C13.8002 0.52103 14.326 0.726576 14.7563 1.13767C15.196 1.54876 15.4159 2.05067 15.4159 2.6434C15.4159 3.25048 15.196 3.75239 14.7563 4.1587C14.3308 4.56501 13.805 4.76577 13.1836 4.76577H11.6683V7.66252ZM11.6683 1.40057V3.89101H13.2027C13.566 3.89101 13.8719 3.76673 14.1109 3.52294C14.3547 3.27916 14.479 2.98279 14.479 2.64818C14.479 2.31835 14.3547 2.02677 14.1109 1.78298C13.8719 1.52964 13.5708 1.40535 13.2027 1.40535H11.6683V1.40057Z" fill="#3C4043"/>
<path d="M17.8154 2.61472C18.4942 2.61472 19.0296 2.79637 19.4215 3.15965C19.8135 3.52294 20.0095 4.02008 20.0095 4.65105V7.66252H19.1347V6.98375H19.0965C18.7189 7.54302 18.2122 7.82027 17.5812 7.82027C17.041 7.82027 16.5917 7.66252 16.2284 7.34225C15.8651 7.02199 15.6835 6.62524 15.6835 6.14723C15.6835 5.64053 15.8747 5.239 16.2571 4.94264C16.6395 4.64149 17.151 4.49331 17.7867 4.49331C18.3317 4.49331 18.781 4.59369 19.1299 4.79445V4.58413C19.1299 4.26386 19.0057 3.99617 18.7523 3.77151C18.499 3.54684 18.2026 3.4369 17.8632 3.4369C17.3518 3.4369 16.9454 3.65201 16.6491 4.087L15.8412 3.5803C16.2858 2.93499 16.9454 2.61472 17.8154 2.61472ZM16.63 6.16157C16.63 6.40057 16.7303 6.60134 16.9359 6.75908C17.1366 6.91682 17.3757 6.99809 17.6481 6.99809C18.0353 6.99809 18.3795 6.85468 18.6806 6.56788C18.9818 6.28107 19.1347 5.94646 19.1347 5.55927C18.8479 5.33461 18.4512 5.21988 17.9397 5.21988C17.5669 5.21988 17.2561 5.31071 17.0076 5.48757C16.7542 5.67399 16.63 5.89866 16.63 6.16157Z" fill="#3C4043"/>
<path d="M24.9999 2.77251L21.9407 9.80884H20.9942L22.1319 7.34708L20.1147 2.77251H21.1137L22.5669 6.28111H22.586L24.0009 2.77251H24.9999Z" fill="#3C4043"/>
<path d="M8.0177 4.18738C8.0177 3.88815 7.99093 3.60182 7.94122 3.32648H4.0942V4.90392L6.30977 4.9044C6.21991 5.42926 5.93071 5.87667 5.4876 6.17495V7.19838H6.80642C7.57649 6.48566 8.0177 5.43212 8.0177 4.18738Z" fill="#4285F4"/>
<path d="M5.48806 6.175C5.12095 6.42261 4.6482 6.56745 4.09514 6.56745C3.02679 6.56745 2.12049 5.84756 1.79592 4.8772H0.435507V5.93265C1.1095 7.27013 2.49477 8.18791 4.09514 8.18791C5.20126 8.18791 6.13051 7.82414 6.80689 7.19795L5.48806 6.175Z" fill="#34A853"/>
<path d="M1.66777 4.09416C1.66777 3.82169 1.71318 3.55831 1.79588 3.3107V2.25525H0.435466C0.156786 2.80831 0 3.43259 0 4.09416C0 4.75573 0.157264 5.38001 0.435466 5.93307L1.79588 4.87762C1.71318 4.63001 1.66777 4.36663 1.66777 4.09416Z" fill="#FABB05"/>
<path d="M4.09514 1.62046C4.69887 1.62046 5.2395 1.82839 5.66636 2.2347L6.83509 1.06692C6.12525 0.405832 5.19982 0 4.09514 0C2.49525 0 1.10946 0.917774 0.435466 2.25525L1.79588 3.3107C2.12045 2.34034 3.02679 1.62046 4.09514 1.62046Z" fill="#E94235"/>
</svg>
