<svg width="14" height="14" viewBox="0 0 14 14" fill="none" xmlns="http://www.w3.org/2000/svg">
<path d="M6.99965 1.26127C8.86855 1.26127 9.08987 1.26827 9.82817 1.30193C10.2721 1.30737 10.7118 1.38888 11.1281 1.54292C11.43 1.65936 11.7042 1.83774 11.9331 2.06656C12.1619 2.29539 12.3403 2.56959 12.4567 2.87152C12.6108 3.28787 12.6923 3.72755 12.6977 4.17146C12.731 4.90975 12.7384 5.13107 12.7384 6.99998C12.7384 8.86888 12.7314 9.09021 12.6977 9.8285C12.6923 10.2724 12.6108 10.7121 12.4567 11.1284C12.3403 11.4304 12.1619 11.7046 11.9331 11.9334C11.7042 12.1622 11.43 12.3406 11.1281 12.457C10.7118 12.6111 10.2721 12.6926 9.82817 12.698C9.09021 12.7314 8.86889 12.7387 6.99965 12.7387C5.13041 12.7387 4.90909 12.7317 4.17112 12.698C3.72722 12.6926 3.28754 12.6111 2.87119 12.457C2.56926 12.3406 2.29505 12.1622 2.06623 11.9334C1.8374 11.7046 1.65903 11.4304 1.54259 11.1284C1.38854 10.7121 1.30703 10.2724 1.3016 9.8285C1.26827 9.09021 1.26094 8.86888 1.26094 6.99998C1.26094 5.13107 1.26794 4.90975 1.3016 4.17146C1.30703 3.72755 1.38854 3.28787 1.54259 2.87152C1.65903 2.56959 1.8374 2.29539 2.06623 2.06656C2.29505 1.83774 2.56926 1.65936 2.87119 1.54292C3.28754 1.38888 3.72722 1.30737 4.17112 1.30193C4.90942 1.2686 5.13074 1.26127 6.99965 1.26127ZM6.99965 0C5.09974 0 4.86042 0.00799957 4.11379 0.0419978C3.53284 0.0535532 2.95805 0.163552 2.41388 0.367315C1.94707 0.543194 1.52425 0.818813 1.17494 1.17494C0.818492 1.52438 0.542637 1.94743 0.366648 2.41454C0.162885 2.95872 0.0528867 3.5335 0.0413313 4.11446C0.00799962 4.86042 0 5.09974 0 6.99965C0 8.89955 0.00799957 9.13887 0.0419979 9.8855C0.0535532 10.4665 0.163552 11.0412 0.367315 11.5854C0.543109 12.0525 0.818733 12.4755 1.17494 12.825C1.52445 13.1812 1.9475 13.4568 2.41454 13.6326C2.95872 13.8364 3.5335 13.9464 4.11446 13.958C4.86109 13.9913 5.09941 14 7.00031 14C8.90122 14 9.13954 13.992 9.88617 13.958C10.4671 13.9464 11.0419 13.8364 11.5861 13.6326C12.0509 13.4525 12.473 13.1773 12.8254 12.8246C13.1778 12.472 13.4528 12.0497 13.6326 11.5847C13.8364 11.0406 13.9464 10.4658 13.958 9.88483C13.9913 9.13887 13.9993 8.89955 13.9993 6.99965C13.9993 5.09974 13.9913 4.86042 13.9573 4.11379C13.9457 3.53284 13.8357 2.95805 13.632 2.41388C13.4562 1.94683 13.1806 1.52378 12.8244 1.17427C12.4748 0.818066 12.0518 0.542442 11.5847 0.366648C11.0406 0.162885 10.4658 0.0528866 9.88483 0.0413313C9.13887 0.00799962 8.89955 0 6.99965 0Z" fill="black"/>
<path d="M7.00108 3.4066C6.29016 3.4066 5.59521 3.61741 5.0041 4.01238C4.41299 4.40735 3.95227 4.96873 3.68021 5.62553C3.40816 6.28234 3.33697 7.00507 3.47567 7.70233C3.61436 8.39959 3.9567 9.04007 4.4594 9.54277C4.9621 10.0455 5.60257 10.3878 6.29984 10.5265C6.9971 10.6652 7.71983 10.594 8.37663 10.322C9.03344 10.0499 9.59482 9.58918 9.98979 8.99807C10.3848 8.40696 10.5956 7.71201 10.5956 7.00108C10.5956 6.04777 10.2169 5.1335 9.54277 4.4594C8.86867 3.7853 7.9544 3.4066 7.00108 3.4066ZM7.00108 9.3343C6.53962 9.3343 6.08852 9.19746 5.70482 8.94108C5.32112 8.6847 5.02207 8.3203 4.84548 7.89397C4.66888 7.46763 4.62267 6.99849 4.7127 6.5459C4.80273 6.0933 5.02495 5.67756 5.35125 5.35125C5.67756 5.02495 6.0933 4.80273 6.5459 4.7127C6.9985 4.62267 7.46763 4.66888 7.89397 4.84547C8.32031 5.02207 8.68471 5.32112 8.94108 5.70482C9.19746 6.08851 9.3343 6.53962 9.3343 7.00108C9.3343 7.61989 9.08848 8.21335 8.65092 8.65092C8.21335 9.08848 7.61989 9.3343 7.00108 9.3343Z" fill="black"/>
<path d="M10.7369 4.10369C11.2007 4.10369 11.5768 3.72762 11.5768 3.26373C11.5768 2.79983 11.2007 2.42377 10.7369 2.42377C10.273 2.42377 9.8969 2.79983 9.8969 3.26373C9.8969 3.72762 10.273 4.10369 10.7369 4.10369Z" fill="black"/>
</svg>
