<svg width="13" height="13" viewBox="0 0 13 13" fill="none" xmlns="http://www.w3.org/2000/svg">
<path fill-rule="evenodd" clip-rule="evenodd" d="M6.49991 0C2.89788 0 0 2.89788 0 6.49991C0 9.37071 1.86873 11.8082 4.44161 12.6748C4.7666 12.729 4.87494 12.5394 4.87494 12.3498C4.87494 12.1873 4.87494 11.7811 4.87494 11.2394C3.06038 11.6457 2.68121 10.3728 2.68121 10.3728C2.3833 9.61446 1.94997 9.42488 1.94997 9.42488C1.35415 9.01863 2.00414 9.01863 2.00414 9.01863C2.65413 9.0728 3.00621 9.69571 3.00621 9.69571C3.57495 10.6978 4.52286 10.3999 4.90202 10.2374C4.95619 9.80404 5.11868 9.53321 5.30826 9.37071C3.87287 9.20821 2.35622 8.63947 2.35622 6.14784C2.35622 5.44368 2.59997 4.84785 3.03329 4.41453C2.97913 4.25203 2.73538 3.60204 3.08746 2.68121C3.08746 2.68121 3.62912 2.51872 4.87494 3.35829C5.38951 3.22287 5.95826 3.14163 6.49991 3.14163C7.04157 3.14163 7.61032 3.22287 8.12489 3.35829C9.37071 2.51872 9.91237 2.68121 9.91237 2.68121C10.2644 3.57495 10.0478 4.22494 9.96654 4.41453C10.3728 4.87494 10.6436 5.44368 10.6436 6.14784C10.6436 8.63947 9.12696 9.18113 7.66448 9.34363C7.90823 9.53321 8.09781 9.93945 8.09781 10.5353C8.09781 11.4019 8.09781 12.1061 8.09781 12.3228C8.09781 12.4853 8.20614 12.7019 8.55822 12.6478C11.1311 11.8082 12.9998 9.37071 12.9998 6.49991C12.9998 2.89788 10.102 0 6.49991 0Z" fill="black"/>
</svg>
