<svg width="22" height="14" viewBox="0 0 22 14" fill="none" xmlns="http://www.w3.org/2000/svg">
<path d="M13.9744 1.45356H8.02558V12.1437H13.9744V1.45356Z" fill="#FF5F00"/>
<path d="M8.40333 6.79864C8.40239 5.7691 8.63569 4.75284 9.08557 3.82679C9.53545 2.90074 10.1901 2.08919 11 1.45355C9.99707 0.665219 8.79257 0.174967 7.52418 0.0388289C6.25578 -0.0973088 4.97468 0.126157 3.82729 0.683694C2.67989 1.24123 1.71251 2.11034 1.03571 3.19168C0.358907 4.27302 0 5.52297 0 6.79864C0 8.07432 0.358907 9.32427 1.03571 10.4056C1.71251 11.4869 2.67989 12.3561 3.82729 12.9136C4.97468 13.4711 6.25578 13.6946 7.52418 13.5585C8.79257 13.4223 9.99707 12.9321 11 12.1437C10.1901 11.5081 9.53546 10.6965 9.08558 9.77049C8.6357 8.84444 8.4024 7.82818 8.40333 6.79864Z" fill="#EB001B"/>
<path d="M21.9997 6.79864C21.9997 8.0743 21.6409 9.32424 20.9641 10.4056C20.2873 11.4869 19.32 12.356 18.1726 12.9136C17.0252 13.4711 15.7442 13.6946 14.4758 13.5585C13.2074 13.4223 12.0029 12.9321 11 12.1437C11.8092 11.5075 12.4633 10.6958 12.9132 9.76987C13.363 8.84397 13.5967 7.82802 13.5967 6.79864C13.5967 5.76926 13.363 4.75332 12.9132 3.82742C12.4633 2.90152 11.8092 2.08983 11 1.45355C12.0029 0.665218 13.2074 0.174963 14.4758 0.0388272C15.7442 -0.0973089 17.0252 0.126167 18.1726 0.68371C19.32 1.24125 20.2873 2.11036 20.9641 3.19171C21.6409 4.27305 21.9997 5.52298 21.9997 6.79864Z" fill="#F79E1B"/>
<path d="M21.3511 11.0115V10.7926H21.4393V10.748H21.2146V10.7926H21.3028V11.0115H21.3511ZM21.7874 11.0115V10.7476H21.7185L21.6393 10.9291L21.56 10.7476H21.4911V11.0115H21.5397V10.8124L21.614 10.984H21.6645L21.7388 10.812V11.0115H21.7874Z" fill="#F79E1B"/>
</svg>
