<svg width="30" height="8" viewBox="0 0 30 8" fill="none" xmlns="http://www.w3.org/2000/svg">
<path fill-rule="evenodd" clip-rule="evenodd" d="M3.59992 0.00084765H1.26656C1.10688 0.00084765 0.971079 0.116883 0.94618 0.27444L0.00244776 6.25719C-0.0163097 6.37527 0.0751258 6.48168 0.194886 6.48168H1.30886C1.46853 6.48168 1.60433 6.36565 1.62923 6.20777L1.88377 4.59415C1.90832 4.43612 2.04445 4.32024 2.2038 4.32024H2.94246C4.47953 4.32024 5.36656 3.57651 5.59835 2.10276C5.70271 1.45801 5.60276 0.951397 5.30072 0.596499C4.96915 0.207027 4.38085 0.00084765 3.59992 0.00084765ZM3.86912 2.18596C3.74155 3.02316 3.1018 3.02316 2.48323 3.02316H2.13112L2.37814 1.45959C2.39281 1.36518 2.47469 1.29556 2.57023 1.29556H2.73161C3.15297 1.29556 3.5505 1.29556 3.75591 1.53569C3.87828 1.67903 3.91586 1.89185 3.86912 2.18596ZM10.5749 2.15913H9.45752C9.36231 2.15913 9.28005 2.22875 9.26537 2.32331L9.21595 2.63574L9.13779 2.52255C8.8959 2.17144 8.35655 2.05414 7.81814 2.05414C6.58327 2.05414 5.52872 2.98922 5.3233 4.30098C5.21656 4.95521 5.3683 5.58086 5.7395 6.01722C6.08007 6.41837 6.56732 6.58556 7.14694 6.58556C8.14181 6.58556 8.69364 5.94586 8.69364 5.94586L8.64375 6.2564C8.62496 6.37512 8.71638 6.48152 8.83543 6.48152H9.84198C10.0021 6.48152 10.1371 6.36548 10.1623 6.20761L10.7663 2.38362C10.7854 2.26601 10.6943 2.15913 10.5749 2.15913ZM9.01732 4.33366C8.90948 4.97194 8.40281 5.40041 7.75672 5.40041C7.43225 5.40041 7.17283 5.29637 7.00642 5.09919C6.84126 4.90343 6.77842 4.62462 6.831 4.31425C6.93173 3.68134 7.44693 3.23897 8.08324 3.23897C8.40044 3.23897 8.65843 3.34427 8.82832 3.54319C8.99853 3.74416 9.06611 4.02455 9.01732 4.33366ZM15.4031 2.15897H16.526C16.6832 2.15897 16.775 2.33531 16.6856 2.46429L12.951 7.85438C12.8905 7.94168 12.7909 7.99363 12.6845 7.99363H11.563C11.4051 7.99363 11.3129 7.81586 11.4043 7.68656L12.5672 6.04532L11.3304 2.41614C11.2876 2.29 11.3808 2.15897 11.515 2.15897H12.6183C12.7617 2.15897 12.8882 2.25306 12.9295 2.39025L13.5859 4.58215L15.1347 2.30121C15.1953 2.21217 15.296 2.15897 15.4031 2.15897Z" fill="#253B80"/>
<path fill-rule="evenodd" clip-rule="evenodd" d="M27.5779 6.25665L28.5355 0.164502C28.5502 0.0699363 28.6321 0.000315745 28.7273 0H29.8054C29.9245 0 30.0159 0.106721 29.9971 0.22481L29.0527 6.20724C29.0281 6.36511 28.8923 6.48115 28.7324 6.48115H27.7696C27.6505 6.48115 27.5591 6.37474 27.5779 6.25665ZM20.244 0.00031323H17.9102C17.7509 0.00031323 17.6151 0.11635 17.5902 0.273907L16.6464 6.25665C16.6277 6.37474 16.7191 6.48115 16.8383 6.48115H18.0357C18.147 6.48115 18.2422 6.4 18.2596 6.28949L18.5274 4.59362C18.552 4.43559 18.6881 4.31971 18.8474 4.31971H19.5857C21.1231 4.31971 22.01 3.57597 22.2419 2.10223C22.3466 1.45748 22.246 0.950866 21.9442 0.595968C21.6127 0.206496 21.0249 0.00031323 20.244 0.00031323ZM20.5132 2.18543C20.3859 3.02263 19.7462 3.02263 19.1272 3.02263H18.7754L19.0229 1.45906C19.0375 1.36465 19.1187 1.29503 19.2145 1.29503H19.3759C19.797 1.29503 20.1949 1.29503 20.4001 1.53515C20.5227 1.6785 20.5599 1.89132 20.5132 2.18543ZM27.2184 2.15859H26.1017C26.0058 2.15859 25.9243 2.22821 25.9099 2.32278L25.8605 2.63521L25.782 2.52202C25.5401 2.17091 25.0011 2.05361 24.4627 2.05361C23.2278 2.05361 22.1736 2.98869 21.9682 4.30045C21.8617 4.95468 22.0128 5.58032 22.384 6.01668C22.7252 6.41784 23.2119 6.58503 23.7915 6.58503C24.7864 6.58503 25.338 5.94533 25.338 5.94533L25.2883 6.25586C25.2695 6.37458 25.3609 6.48099 25.4808 6.48099H26.4868C26.6462 6.48099 26.7819 6.36495 26.8069 6.20708L27.4111 2.38309C27.4296 2.26547 27.3382 2.15859 27.2184 2.15859ZM25.6609 4.33313C25.5537 4.97141 25.0464 5.39988 24.4002 5.39988C24.0763 5.39988 23.8164 5.29584 23.6499 5.09866C23.4847 4.9029 23.4227 4.62409 23.4746 4.31372C23.5758 3.6808 24.0904 3.23844 24.7267 3.23844C25.044 3.23844 25.3019 3.34374 25.4719 3.54266C25.6428 3.74363 25.7103 4.02401 25.6609 4.33313Z" fill="#179BD7"/>
</svg>
