<svg width="28" height="10" viewBox="0 0 28 10" fill="none" xmlns="http://www.w3.org/2000/svg">
<path d="M13.8643 0.160003L11.9932 8.90615H9.73079L11.6021 0.160003H13.8643ZM23.3833 5.80742L24.5744 2.52294L25.2599 5.80742H23.3833ZM25.9076 8.90615H28.0004L26.1742 0.160003H24.2425C23.8085 0.160003 23.4423 0.412463 23.2792 0.801673L19.8848 8.90615H22.2608L22.7325 7.60011H25.6352L25.9076 8.90615ZM20.0028 6.05047C20.0124 3.74206 16.8105 3.615 16.8326 2.58384C16.8393 2.26965 17.1385 1.93636 17.7921 1.85082C18.1168 1.80847 19.0095 1.77608 20.0232 2.24252L20.4202 0.387826C19.8757 0.190176 19.1751 0 18.3036 0C16.0675 0 14.4935 1.18895 14.4802 2.89139C14.4661 4.15037 15.6038 4.85294 16.4611 5.2715C17.3425 5.70029 17.6387 5.9749 17.6348 6.35829C17.629 6.94543 16.9317 7.20398 16.2812 7.21422C15.1435 7.23222 14.4832 6.90723 13.957 6.66197L13.547 8.5784C14.0755 8.82117 15.0513 9.0321 16.0636 9.0429C18.4401 9.0429 19.995 7.86863 20.0028 6.05047ZM10.6313 0.160003L6.96563 8.90615H4.57363L2.76986 1.92612C2.66024 1.49622 2.56502 1.33898 2.232 1.15766C1.6886 0.86285 0.790322 0.585753 0 0.414124L0.0539799 0.160003H3.90372C4.39425 0.160003 4.83577 0.486651 4.94706 1.05164L5.89987 6.11303L8.25423 0.160003H10.6313Z" fill="#1434CB"/>
</svg>
